<?xml version="1.0" encoding="utf-8"?>
<!-- Generator: Adobe Illustrator 15.0.0, SVG Export Plug-In . SVG Version: 6.00 Build 0)  -->
<!DOCTYPE svg PUBLIC "-//W3C//DTD SVG 1.1//EN" "http://www.w3.org/Graphics/SVG/1.1/DTD/svg11.dtd">
<svg version="1.1" id="Layer_1" xmlns="http://www.w3.org/2000/svg" xmlns:xlink="http://www.w3.org/1999/xlink" x="0px" y="0px"
	 width="141.73px" height="141.73px" viewBox="0 0 141.73 141.73" enable-background="new 0 0 141.73 141.73" xml:space="preserve">
<path fill="#EE6E23" d="M111.591,18.211c-22.491-22.493-58.96-22.493-81.451,0c-22.493,22.492-22.493,58.958,0,81.452l40.726,40.727
	l40.726-40.727C134.084,77.169,134.084,40.703,111.591,18.211"/>
<path display="none" fill="none" stroke="#000000" stroke-width="12.048" stroke-linecap="round" stroke-linejoin="round" stroke-miterlimit="10" d="
	M108.479,21.768c-20.839-20.84-54.628-20.84-75.467,0c-20.84,20.839-20.84,54.626,0,75.467l37.733,37.734l37.733-37.734
	C129.318,76.395,129.318,42.607,108.479,21.768z"/>
<path fill="#194378" d="M106.773,59.813c0-19.832-16.077-35.909-35.908-35.909S34.957,39.981,34.957,59.813
	c0,19.833,16.078,35.91,35.909,35.91c14.196,0,26.469-8.242,32.297-20.2H83.56c-3.471,2.807-7.886,4.489-12.694,4.489
	c-8.37,0-15.549-5.09-18.614-12.344h53.658C106.474,65.14,106.773,62.511,106.773,59.813 M52.251,51.958
	c3.064-7.252,10.244-12.343,18.614-12.343c8.369,0,15.548,5.091,18.613,12.343H52.251z"/>
<path fill="none" stroke="#FFFFFF" stroke-width="5" stroke-miterlimit="10" d="M106.653,59.501
	c0-19.832-16.077-35.909-35.908-35.909S34.836,39.67,34.836,59.501c0,19.833,16.078,35.91,35.909,35.91
	c14.196,0,26.469-8.242,32.297-20.2H83.439c-3.471,2.807-7.886,4.489-12.694,4.489c-8.37,0-15.549-5.09-18.614-12.344h53.658
	C106.354,64.828,106.653,62.2,106.653,59.501z M52.131,51.647c3.064-7.252,10.244-12.343,18.614-12.343
	c8.369,0,15.548,5.091,18.613,12.343H52.131z"/>
</svg>
