<svg width="12" height="12" viewBox="0 0 12 12" fill="none" xmlns="http://www.w3.org/2000/svg">
<path d="M1.76471 0C1.29668 0 0.847817 0.185924 0.51687 0.51687C0.185924 0.847817 0 1.29668 0 1.76471V8.11765C0 8.58568 0.185924 9.03454 0.51687 9.36548C0.847817 9.69643 1.29668 9.88235 1.76471 9.88235H5.36471C5.24927 9.65674 5.15635 9.42031 5.08729 9.17647H1.76471C1.48389 9.17647 1.21457 9.06492 1.016 8.86635C0.817437 8.66778 0.705882 8.39847 0.705882 8.11765V3.17647H3.57953C3.72304 3.1765 3.86506 3.14736 3.99696 3.09081C4.12887 3.03427 4.2479 2.9515 4.34682 2.84753L5.37812 1.76471H9.52941C9.81023 1.76471 10.0795 1.87626 10.2781 2.07483C10.4767 2.2734 10.5882 2.54271 10.5882 2.82353V4.65882C10.8409 4.788 11.0774 4.944 11.2941 5.12259V2.82353C11.2941 2.3555 11.1082 1.90664 10.7772 1.57569C10.4463 1.24475 9.99744 1.05882 9.52941 1.05882H5.412L4.28259 0.211765C4.09931 0.074306 3.87639 0 3.64729 0H1.76471ZM0.705882 1.76471C0.705882 1.48389 0.817437 1.21457 1.016 1.016C1.21457 0.817437 1.48389 0.705882 1.76471 0.705882H3.64729C3.72366 0.705882 3.79797 0.730651 3.85906 0.776471L4.72518 1.42588L3.83576 2.36118C3.80271 2.39585 3.76295 2.42343 3.7189 2.44224C3.67485 2.46105 3.62743 2.47069 3.57953 2.47059H0.705882V1.76471ZM8.82353 4.94118C9.66598 4.94118 10.4739 5.27584 11.0696 5.87154C11.6653 6.46725 12 7.27519 12 8.11765C12 8.9601 11.6653 9.76805 11.0696 10.3638C10.4739 10.9595 9.66598 11.2941 8.82353 11.2941C7.98108 11.2941 7.17313 10.9595 6.57743 10.3638C5.98172 9.76805 5.64706 8.9601 5.64706 8.11765C5.64706 7.27519 5.98172 6.46725 6.57743 5.87154C7.17313 5.27584 7.98108 4.94118 8.82353 4.94118ZM10.4845 8.36753L10.4866 8.36541C10.5513 8.29995 10.5877 8.21178 10.5882 8.11977V8.11553C10.5877 8.02284 10.5506 7.9341 10.4852 7.86847L9.07341 6.45671C9.00723 6.39043 8.91744 6.35316 8.82378 6.3531C8.73012 6.35303 8.64027 6.39017 8.574 6.45635C8.50773 6.52253 8.47046 6.61233 8.47039 6.70599C8.47033 6.79964 8.50747 6.88949 8.57365 6.95576L9.38329 7.76471H7.41177C7.31816 7.76471 7.22839 7.80189 7.1622 7.86808C7.09601 7.93427 7.05882 8.02404 7.05882 8.11765C7.05882 8.21125 7.09601 8.30103 7.1622 8.36721C7.22839 8.4334 7.31816 8.47059 7.41177 8.47059H9.38329L8.57365 9.27953C8.50737 9.3458 8.47014 9.43569 8.47014 9.52941C8.47014 9.62314 8.50737 9.71302 8.57365 9.77929C8.63992 9.84557 8.72981 9.8828 8.82353 9.8828C8.91725 9.8828 9.00714 9.84557 9.07341 9.77929L10.4852 8.36753H10.4845Z" fill="white"/>
</svg>
