<svg width="91" height="91" viewBox="0 0 91 91" fill="none" xmlns="http://www.w3.org/2000/svg">
<g id="Iconly/Bulk/Location">
<g id="Location">
<path id="Path_34175" fill-rule="evenodd" clip-rule="evenodd" d="M32.3478 11.134C40.632 6.32045 50.8147 6.40458 59.0212 11.3543C67.1471 16.4049 72.0857 25.4187 72.0397 35.115C71.8506 44.7477 66.5549 53.8024 59.9354 60.8022C56.1147 64.8605 51.8407 68.449 47.2006 71.4945C46.7227 71.7708 46.1992 71.9558 45.656 72.0404C45.1332 72.0181 44.624 71.8636 44.1745 71.5908C37.0904 67.0148 30.8755 61.1736 25.8288 54.3483C21.6058 48.651 19.2067 41.7677 18.957 34.6334C18.9515 24.9185 24.0635 15.9475 32.3478 11.134ZM37.1349 38.6539C38.5284 42.0894 41.8177 44.3303 45.4669 44.3303C47.8575 44.3475 50.1556 43.3899 51.849 41.6709C53.5425 39.952 54.4906 37.6145 54.4821 35.1792C54.4948 31.4621 52.3065 28.1037 48.9387 26.6722C45.571 25.2407 41.6882 26.0184 39.1034 28.6423C36.5185 31.2661 35.7414 35.2184 37.1349 38.6539Z" fill="#3894FF"/>
<ellipse id="Ellipse_743" opacity="0.4" cx="45.4974" cy="79.6237" rx="18.9583" ry="3.79167" fill="#3894FF"/>
</g>
</g>
</svg>
